<svg width="75" height="80" viewBox="0 0 75 80" fill="none" xmlns="http://www.w3.org/2000/svg">
<path d="M5.90381 71.0137H7.68086V79.605H5.90381V71.0137Z" fill="url(#paint0_linear_333_154)"/>
<path d="M18.5342 71.0137V79.605H16.5125V75.0626L14.8434 79.605H13.3971L11.7322 75.064V79.605H9.71045V71.0137H11.821L14.1216 77.4808L16.4236 71.0137H18.5342Z" fill="url(#paint1_linear_333_154)"/>
<path d="M20.376 71.0137H22.153V79.605H20.376V71.0137Z" fill="url(#paint2_linear_333_154)"/>
<path d="M25.0959 72.4462H23.3462V71.0137H28.2139V72.4462H26.4629V79.5859H25.0959V72.4462Z" fill="url(#paint3_linear_333_154)"/>
<path d="M29.521 71.0137H30.9959V78.018H33.9937V79.5859H29.521V71.0137Z" fill="url(#paint4_linear_333_154)"/>
<path d="M0 70.959H1.47632V78.0398H4.4727V79.6255H0V70.959Z" fill="url(#paint5_linear_333_154)"/>
<path d="M35.1763 71.0137H40.3051V72.5788H36.9V74.3039H39.9415V75.8691H36.9V78.0084H40.3051V79.5736H35.1763V71.0137Z" fill="url(#paint6_linear_333_154)"/>
<path d="M42.7369 79.4026C42.3587 79.1991 42.0467 78.8917 41.8374 78.5168C41.6213 78.1234 41.5115 77.6805 41.5189 77.2318V77.0651C41.5187 77.0164 41.533 76.9688 41.5599 76.9284C41.5702 76.9113 41.5846 76.8971 41.6018 76.8871C41.619 76.8771 41.6384 76.8715 41.6583 76.8709H42.946C42.9659 76.8715 42.9853 76.8771 43.0025 76.8871C43.0197 76.8971 43.0341 76.9113 43.0444 76.9284C43.0703 76.9693 43.0841 77.0167 43.0841 77.0651V77.0815C43.0828 77.2003 43.1076 77.3179 43.1567 77.4261C43.2058 77.5343 43.2781 77.6303 43.3684 77.7075C43.5636 77.8832 43.8194 77.9763 44.082 77.9673C44.3155 77.9776 44.5439 77.8967 44.719 77.7417C44.7974 77.6716 44.8598 77.5853 44.9018 77.4888C44.9438 77.3923 44.9644 77.2878 44.9623 77.1826C44.9679 77.0961 44.9519 77.0095 44.9156 76.9307C44.8793 76.8519 44.824 76.7835 44.7545 76.7315C44.5413 76.5967 44.3116 76.4901 44.071 76.4144C43.7747 76.3114 43.4879 76.1829 43.2139 76.0303C42.7602 75.8169 42.3568 75.5099 42.0301 75.1294C41.7367 74.7731 41.59 74.2614 41.59 73.5943C41.59 72.7742 41.8123 72.1203 42.2571 71.6328C42.7018 71.1452 43.2909 70.9032 44.0245 70.9069C44.4809 70.8964 44.9311 71.0148 45.3232 71.2486C45.6964 71.4787 45.9962 71.8107 46.1871 72.2055C46.3978 72.6425 46.5032 73.1229 46.4946 73.608C46.495 73.6567 46.4807 73.7043 46.4536 73.7447C46.4433 73.7618 46.4289 73.7759 46.4117 73.786C46.3945 73.796 46.3751 73.8016 46.3552 73.8021H45.1154C45.0952 73.8018 45.0755 73.7963 45.0581 73.7863C45.0406 73.7762 45.026 73.7619 45.0156 73.7447C44.9895 73.7039 44.9757 73.6564 44.9759 73.608C44.9784 73.4924 44.9564 73.3777 44.9115 73.2712C44.8665 73.1647 44.7995 73.0689 44.7149 72.9901C44.5318 72.8377 44.3034 72.75 44.0653 72.7409C43.8272 72.7317 43.5927 72.8016 43.3985 72.9396C43.3191 73.0063 43.2559 73.0902 43.2138 73.1849C43.1716 73.2796 43.1516 73.3827 43.1552 73.4864C43.1491 73.5833 43.1678 73.6801 43.2094 73.7679C43.251 73.8556 43.3142 73.9313 43.393 73.988C43.6412 74.1391 43.9082 74.2568 44.1872 74.338C44.272 74.3708 44.369 74.4077 44.477 74.446C44.585 74.4842 44.7012 74.5334 44.8256 74.5827C45.3217 74.7795 45.7657 75.0882 46.1228 75.4848C46.44 75.8494 46.5985 76.3834 46.5985 77.0869C46.5985 77.9071 46.3707 78.5496 45.915 79.0143C45.4594 79.4791 44.8534 79.7142 44.097 79.7197C43.6241 79.7309 43.156 79.6218 42.7369 79.4026Z" fill="url(#paint7_linear_333_154)"/>
<path d="M49.1667 79.4025C48.7887 79.1994 48.477 78.8919 48.2686 78.5167C48.0519 78.1236 47.9421 77.6806 47.9501 77.2318V77.065C47.9495 77.0165 47.9633 76.969 47.9898 76.9283C48 76.9113 48.0144 76.8971 48.0316 76.8871C48.0488 76.877 48.0683 76.8715 48.0882 76.8709H49.3759C49.3958 76.8715 49.4152 76.877 49.4324 76.8871C49.4496 76.8971 49.464 76.9113 49.4743 76.9283C49.5012 76.9688 49.5155 77.0164 49.5153 77.065V77.0814C49.5144 77.2 49.5392 77.3174 49.5881 77.4255C49.6369 77.5336 49.7086 77.6298 49.7982 77.7075C49.9936 77.8829 50.2493 77.976 50.5118 77.9672C50.7458 77.9776 50.9747 77.8967 51.1502 77.7417C51.2284 77.6714 51.2906 77.585 51.3326 77.4886C51.3746 77.3921 51.3954 77.2878 51.3935 77.1826C51.3993 77.0959 51.3831 77.0091 51.3466 76.9303C51.31 76.8515 51.2542 76.7831 51.1843 76.7315C50.9711 76.5968 50.7414 76.4902 50.5009 76.4143C50.2042 76.3111 49.917 76.1826 49.6424 76.0302C49.189 75.817 48.786 75.5099 48.46 75.1294C48.1656 74.7731 48.0185 74.2614 48.0185 73.5943C48.0185 72.7741 48.2408 72.1203 48.6855 71.6327C49.1303 71.1452 49.7199 70.9032 50.4544 70.9069C50.9108 70.8966 51.3608 71.0151 51.753 71.2486C52.1259 71.4788 52.4252 71.8108 52.6156 72.2055C52.8263 72.6425 52.9317 73.1229 52.9231 73.608C52.9235 73.6566 52.9092 73.7043 52.8821 73.7447C52.872 73.7619 52.8577 73.7762 52.8404 73.7863C52.8232 73.7963 52.8036 73.8018 52.7837 73.8021H51.5439C51.5239 73.8016 51.5044 73.7961 51.4872 73.7861C51.47 73.7761 51.4556 73.7618 51.4454 73.7447C51.4183 73.7043 51.404 73.6566 51.4044 73.608C51.4069 73.4924 51.3849 73.3776 51.3399 73.2711C51.2949 73.1647 51.2279 73.0689 51.1433 72.9901C50.9606 72.8375 50.7324 72.7498 50.4944 72.7407C50.2565 72.7315 50.0223 72.8014 49.8283 72.9395C49.7484 73.0058 49.6848 73.0896 49.6426 73.1844C49.6004 73.2793 49.5807 73.3826 49.585 73.4863C49.5787 73.5831 49.5971 73.6799 49.6385 73.7677C49.6798 73.8554 49.7428 73.9312 49.8215 73.988C50.0697 74.1391 50.3367 74.2568 50.6157 74.3379C50.7018 74.3707 50.7975 74.4077 50.9055 74.4459C51.0135 74.4842 51.1297 74.5334 51.2541 74.5826C51.7504 74.7798 52.1947 75.0885 52.5527 75.4848C52.8698 75.8493 53.0284 76.3834 53.0284 77.0869C53.0284 77.9071 52.8005 78.5495 52.3449 79.0143C51.8892 79.4791 51.2814 79.7142 50.5214 79.7197C50.0503 79.7297 49.5843 79.6207 49.1667 79.4025Z" fill="url(#paint8_linear_333_154)"/>
<path d="M57.3467 79.1575V71.7964C57.3467 71.7239 57.3863 71.687 57.4629 71.687H57.847C57.9235 71.687 57.9632 71.7239 57.9632 71.7964V79.1575C57.9632 79.2299 57.9235 79.2654 57.847 79.2654H57.4629C57.3863 79.2654 57.3467 79.2299 57.3467 79.1575Z" fill="url(#paint9_linear_333_154)"/>
<path d="M65.6168 71.5024H65.9996C66.0775 71.5024 66.1158 71.538 66.1158 71.6104V78.9715C66.1158 79.044 66.0775 79.0809 65.9996 79.0809H65.6168C65.5896 79.0799 65.563 79.0725 65.5392 79.0592C65.5154 79.0459 65.4952 79.0271 65.4802 79.0043L61.274 72.6493C61.2658 72.6275 61.2535 72.6192 61.2385 72.622C61.2234 72.6247 61.2152 72.6384 61.2152 72.6603V78.9715C61.2152 79.044 61.177 79.0809 61.099 79.0809H60.7163C60.6384 79.0809 60.6001 79.044 60.6001 78.9715V71.6104C60.6001 71.538 60.6384 71.5024 60.7163 71.5024H61.1113C61.1384 71.5034 61.1649 71.5108 61.1886 71.5238C61.2124 71.5369 61.2327 71.5553 61.248 71.5776L65.4419 77.9326C65.4501 77.9545 65.461 77.9641 65.4774 77.96C65.4938 77.9559 65.5007 77.9436 65.5007 77.9217V71.6104C65.5007 71.5394 65.5389 71.5024 65.6168 71.5024Z" fill="url(#paint10_linear_333_154)"/>
<path d="M68.6021 78.9715V71.6104C68.6021 71.538 68.6403 71.5024 68.7182 71.5024H69.101C69.1789 71.5024 69.2172 71.538 69.2172 71.6104V75.4379C69.2174 75.4449 69.2197 75.4517 69.2239 75.4573C69.228 75.4629 69.2338 75.4671 69.2404 75.4694C69.2433 75.4715 69.2467 75.4729 69.2503 75.4735C69.2538 75.4741 69.2575 75.4738 69.2609 75.4728C69.2644 75.4717 69.2675 75.4699 69.2701 75.4674C69.2727 75.4649 69.2747 75.4618 69.276 75.4584L73.2032 71.5612C73.2402 71.5265 73.2892 71.5074 73.3399 71.5079H73.7692C73.7865 71.5055 73.8042 71.5076 73.8205 71.5141C73.8368 71.5205 73.8511 71.5311 73.8621 71.5448C73.8772 71.5708 73.8703 71.6009 73.8389 71.6378L70.9341 74.615C70.919 74.6287 70.919 74.6506 70.9341 74.6793L74.1068 78.9565L74.13 79.0098C74.13 79.0604 74.0945 79.0863 74.0248 79.0863H73.5723C73.5459 79.0878 73.5194 79.0826 73.4955 79.0711C73.4716 79.0596 73.451 79.0423 73.4356 79.0207L70.5185 75.0907C70.5155 75.0842 70.5106 75.0787 70.5046 75.0749C70.4985 75.071 70.4915 75.0689 70.4844 75.0688C70.4716 75.068 70.4589 75.0719 70.4488 75.0798L69.2404 76.239C69.2329 76.2457 69.227 76.2539 69.223 76.2631C69.219 76.2723 69.217 76.2822 69.2172 76.2923V78.977C69.2172 79.0494 69.1789 79.0863 69.101 79.0863H68.7182C68.6403 79.0809 68.6021 79.044 68.6021 78.9715Z" fill="url(#paint11_linear_333_154)"/>
<path d="M53.6306 56.2957H36.0474V14.5815H37.8244V54.5187H53.6306V56.2957Z" fill="url(#paint12_linear_333_154)"/>
<path d="M33.0482 32.6305L19.2419 46.6992L19.1462 31.7993C19.1477 31.5337 19.0438 31.2783 18.8572 31.0892C18.6707 30.9001 18.4167 30.7927 18.1511 30.7905C17.8855 30.7963 17.6329 30.9071 17.4489 31.0988C17.2649 31.2905 17.1645 31.5474 17.1696 31.813L17.305 51.5437L34.4412 34.0712C34.6294 33.8787 34.7344 33.62 34.7337 33.3508C34.7391 33.1533 34.685 32.9587 34.5783 32.7923C34.4717 32.6259 34.3176 32.4954 34.1358 32.4177C33.9541 32.3401 33.7533 32.3188 33.5593 32.3568C33.3654 32.3947 33.1873 32.49 33.0482 32.6305Z" fill="url(#paint13_linear_333_154)"/>
<path d="M34.7333 56.2055H17.4111V54.4285H32.9562V14.5815H34.7333V56.2055Z" fill="url(#paint14_linear_333_154)"/>
<path d="M35.27 12.9477C34.6758 12.9464 34.0953 12.769 33.6018 12.4381C33.1083 12.1071 32.7239 11.6373 32.4971 11.0881C32.2704 10.5389 32.2114 9.93477 32.3277 9.35205C32.4439 8.76932 32.7302 8.2341 33.1504 7.81393C33.5705 7.39376 34.1058 7.10748 34.6885 6.99123C35.2712 6.87497 35.8753 6.93395 36.4245 7.16072C36.9738 7.38749 37.4435 7.77188 37.7745 8.26538C38.1055 8.75888 38.2828 9.33937 38.2842 9.93358C38.2834 10.7328 37.9656 11.499 37.4005 12.0641C36.8354 12.6292 36.0692 12.947 35.27 12.9477ZM35.27 8.69785C35.027 8.6992 34.7898 8.77249 34.5884 8.9085C34.387 9.0445 34.2303 9.23711 34.1383 9.46203C34.0462 9.68694 34.0228 9.93409 34.0711 10.1723C34.1193 10.4105 34.237 10.6291 34.4093 10.8004C34.5817 10.9718 34.8009 11.0883 35.0393 11.1352C35.2778 11.1821 35.5248 11.1574 35.7492 11.0641C35.9736 10.9707 36.1654 10.8131 36.3002 10.6109C36.4351 10.4087 36.5071 10.1711 36.5071 9.92811C36.5049 9.60131 36.3737 9.28861 36.142 9.05816C35.9102 8.82771 35.5968 8.6982 35.27 8.69785Z" fill="url(#paint15_linear_333_154)"/>
<path d="M60.8777 65.6442H9.78613V0H60.8777V65.6442ZM11.5632 63.8672H59.1006V1.77705H11.5632V63.8672Z" fill="url(#paint16_linear_333_154)"/>
<path d="M37.9553 31.3663L45.8372 23.4611C45.9198 23.3787 45.9853 23.2808 46.0301 23.173C46.0748 23.0653 46.0978 22.9497 46.0978 22.833C46.0978 22.7163 46.0748 22.6008 46.0301 22.493C45.9853 22.3852 45.9198 22.2873 45.8372 22.2049C45.6705 22.0384 45.4446 21.9448 45.209 21.9448C44.9735 21.9448 44.7475 22.0384 44.5809 22.2049L36.0962 30.7142V31.8748L51.1082 50.8277C51.2545 51.0124 51.4681 51.1314 51.7022 51.1586C51.9362 51.1858 52.1715 51.1189 52.3562 50.9726C52.4478 50.9001 52.5243 50.8103 52.5812 50.7083C52.6381 50.6063 52.6743 50.494 52.6878 50.378C52.7012 50.2619 52.6917 50.1443 52.6596 50.032C52.6276 49.9196 52.5737 49.8147 52.5011 49.7232L37.9553 31.3663Z" fill="url(#paint17_linear_333_154)"/>
<path d="M57.5245 62.1885H12.9165V3.51855H57.5245V62.1885ZM13.3266 61.7784H57.1145V3.92864H13.3266V61.7784Z" fill="url(#paint18_linear_333_154)"/>
<defs>
<linearGradient id="paint0_linear_333_154" x1="5.90381" y1="71.2371" x2="8.14172" y2="71.3577" gradientUnits="userSpaceOnUse">
<stop stop-color="#A4802A"/>
<stop offset="0.168539" stop-color="#D5BA57"/>
<stop offset="0.219924" stop-color="#D9BF5A"/>
<stop offset="0.31072" stop-color="#DEC45E"/>
<stop offset="0.341962" stop-color="#E1C761"/>
<stop offset="0.41072" stop-color="#E5CD65"/>
<stop offset="0.456087" stop-color="#EBD36A"/>
<stop offset="0.541865" stop-color="#EFD86E"/>
<stop offset="0.5659" stop-color="#EDD56C"/>
<stop offset="0.592895" stop-color="#EAD36A"/>
<stop offset="0.707011" stop-color="#DCC25C"/>
<stop offset="0.780492" stop-color="#CEB14F"/>
<stop offset="0.833303" stop-color="#C4A546"/>
<stop offset="1" stop-color="#A48028"/>
</linearGradient>
<linearGradient id="paint1_linear_333_154" x1="9.71045" y1="71.2371" x2="20.1095" y2="74.0212" gradientUnits="userSpaceOnUse">
<stop stop-color="#A4802A"/>
<stop offset="0.168539" stop-color="#D5BA57"/>
<stop offset="0.219924" stop-color="#D9BF5A"/>
<stop offset="0.31072" stop-color="#DEC45E"/>
<stop offset="0.341962" stop-color="#E1C761"/>
<stop offset="0.41072" stop-color="#E5CD65"/>
<stop offset="0.456087" stop-color="#EBD36A"/>
<stop offset="0.541865" stop-color="#EFD86E"/>
<stop offset="0.5659" stop-color="#EDD56C"/>
<stop offset="0.592895" stop-color="#EAD36A"/>
<stop offset="0.707011" stop-color="#DCC25C"/>
<stop offset="0.780492" stop-color="#CEB14F"/>
<stop offset="0.833303" stop-color="#C4A546"/>
<stop offset="1" stop-color="#A48028"/>
</linearGradient>
<linearGradient id="paint2_linear_333_154" x1="20.376" y1="71.2371" x2="22.6139" y2="71.3577" gradientUnits="userSpaceOnUse">
<stop stop-color="#A4802A"/>
<stop offset="0.168539" stop-color="#D5BA57"/>
<stop offset="0.219924" stop-color="#D9BF5A"/>
<stop offset="0.31072" stop-color="#DEC45E"/>
<stop offset="0.341962" stop-color="#E1C761"/>
<stop offset="0.41072" stop-color="#E5CD65"/>
<stop offset="0.456087" stop-color="#EBD36A"/>
<stop offset="0.541865" stop-color="#EFD86E"/>
<stop offset="0.5659" stop-color="#EDD56C"/>
<stop offset="0.592895" stop-color="#EAD36A"/>
<stop offset="0.707011" stop-color="#DCC25C"/>
<stop offset="0.780492" stop-color="#CEB14F"/>
<stop offset="0.833303" stop-color="#C4A546"/>
<stop offset="1" stop-color="#A48028"/>
</linearGradient>
<linearGradient id="paint3_linear_333_154" x1="23.3462" y1="71.2366" x2="29.3624" y2="72.1271" gradientUnits="userSpaceOnUse">
<stop stop-color="#A4802A"/>
<stop offset="0.168539" stop-color="#D5BA57"/>
<stop offset="0.219924" stop-color="#D9BF5A"/>
<stop offset="0.31072" stop-color="#DEC45E"/>
<stop offset="0.341962" stop-color="#E1C761"/>
<stop offset="0.41072" stop-color="#E5CD65"/>
<stop offset="0.456087" stop-color="#EBD36A"/>
<stop offset="0.541865" stop-color="#EFD86E"/>
<stop offset="0.5659" stop-color="#EDD56C"/>
<stop offset="0.592895" stop-color="#EAD36A"/>
<stop offset="0.707011" stop-color="#DCC25C"/>
<stop offset="0.780492" stop-color="#CEB14F"/>
<stop offset="0.833303" stop-color="#C4A546"/>
<stop offset="1" stop-color="#A48028"/>
</linearGradient>
<linearGradient id="paint4_linear_333_154" x1="29.521" y1="71.2366" x2="35.0674" y2="71.991" gradientUnits="userSpaceOnUse">
<stop stop-color="#A4802A"/>
<stop offset="0.168539" stop-color="#D5BA57"/>
<stop offset="0.219924" stop-color="#D9BF5A"/>
<stop offset="0.31072" stop-color="#DEC45E"/>
<stop offset="0.341962" stop-color="#E1C761"/>
<stop offset="0.41072" stop-color="#E5CD65"/>
<stop offset="0.456087" stop-color="#EBD36A"/>
<stop offset="0.541865" stop-color="#EFD86E"/>
<stop offset="0.5659" stop-color="#EDD56C"/>
<stop offset="0.592895" stop-color="#EAD36A"/>
<stop offset="0.707011" stop-color="#DCC25C"/>
<stop offset="0.780492" stop-color="#CEB14F"/>
<stop offset="0.833303" stop-color="#C4A546"/>
<stop offset="1" stop-color="#A48028"/>
</linearGradient>
<linearGradient id="paint5_linear_333_154" x1="6.26741e-08" y1="71.1843" x2="5.54861" y2="71.9308" gradientUnits="userSpaceOnUse">
<stop stop-color="#A4802A"/>
<stop offset="0.168539" stop-color="#D5BA57"/>
<stop offset="0.219924" stop-color="#D9BF5A"/>
<stop offset="0.31072" stop-color="#DEC45E"/>
<stop offset="0.341962" stop-color="#E1C761"/>
<stop offset="0.41072" stop-color="#E5CD65"/>
<stop offset="0.456087" stop-color="#EBD36A"/>
<stop offset="0.541865" stop-color="#EFD86E"/>
<stop offset="0.5659" stop-color="#EDD56C"/>
<stop offset="0.592895" stop-color="#EAD36A"/>
<stop offset="0.707011" stop-color="#DCC25C"/>
<stop offset="0.780492" stop-color="#CEB14F"/>
<stop offset="0.833303" stop-color="#C4A546"/>
<stop offset="1" stop-color="#A48028"/>
</linearGradient>
<linearGradient id="paint6_linear_333_154" x1="35.1763" y1="71.2363" x2="41.4998" y2="72.2239" gradientUnits="userSpaceOnUse">
<stop stop-color="#A4802A"/>
<stop offset="0.168539" stop-color="#D5BA57"/>
<stop offset="0.219924" stop-color="#D9BF5A"/>
<stop offset="0.31072" stop-color="#DEC45E"/>
<stop offset="0.341962" stop-color="#E1C761"/>
<stop offset="0.41072" stop-color="#E5CD65"/>
<stop offset="0.456087" stop-color="#EBD36A"/>
<stop offset="0.541865" stop-color="#EFD86E"/>
<stop offset="0.5659" stop-color="#EDD56C"/>
<stop offset="0.592895" stop-color="#EAD36A"/>
<stop offset="0.707011" stop-color="#DCC25C"/>
<stop offset="0.780492" stop-color="#CEB14F"/>
<stop offset="0.833303" stop-color="#C4A546"/>
<stop offset="1" stop-color="#A48028"/>
</linearGradient>
<linearGradient id="paint7_linear_333_154" x1="41.5186" y1="71.1354" x2="47.793" y2="72.0781" gradientUnits="userSpaceOnUse">
<stop stop-color="#A4802A"/>
<stop offset="0.168539" stop-color="#D5BA57"/>
<stop offset="0.219924" stop-color="#D9BF5A"/>
<stop offset="0.31072" stop-color="#DEC45E"/>
<stop offset="0.341962" stop-color="#E1C761"/>
<stop offset="0.41072" stop-color="#E5CD65"/>
<stop offset="0.456087" stop-color="#EBD36A"/>
<stop offset="0.541865" stop-color="#EFD86E"/>
<stop offset="0.5659" stop-color="#EDD56C"/>
<stop offset="0.592895" stop-color="#EAD36A"/>
<stop offset="0.707011" stop-color="#DCC25C"/>
<stop offset="0.780492" stop-color="#CEB14F"/>
<stop offset="0.833303" stop-color="#C4A546"/>
<stop offset="1" stop-color="#A48028"/>
</linearGradient>
<linearGradient id="paint8_linear_333_154" x1="47.9497" y1="71.1354" x2="54.2226" y2="72.0777" gradientUnits="userSpaceOnUse">
<stop stop-color="#A4802A"/>
<stop offset="0.168539" stop-color="#D5BA57"/>
<stop offset="0.219924" stop-color="#D9BF5A"/>
<stop offset="0.31072" stop-color="#DEC45E"/>
<stop offset="0.341962" stop-color="#E1C761"/>
<stop offset="0.41072" stop-color="#E5CD65"/>
<stop offset="0.456087" stop-color="#EBD36A"/>
<stop offset="0.541865" stop-color="#EFD86E"/>
<stop offset="0.5659" stop-color="#EDD56C"/>
<stop offset="0.592895" stop-color="#EAD36A"/>
<stop offset="0.707011" stop-color="#DCC25C"/>
<stop offset="0.780492" stop-color="#CEB14F"/>
<stop offset="0.833303" stop-color="#C4A546"/>
<stop offset="1" stop-color="#A48028"/>
</linearGradient>
<linearGradient id="paint9_linear_333_154" x1="57.3467" y1="71.8841" x2="58.125" y2="71.9006" gradientUnits="userSpaceOnUse">
<stop stop-color="#A4802A"/>
<stop offset="0.168539" stop-color="#D5BA57"/>
<stop offset="0.219924" stop-color="#D9BF5A"/>
<stop offset="0.31072" stop-color="#DEC45E"/>
<stop offset="0.341962" stop-color="#E1C761"/>
<stop offset="0.41072" stop-color="#E5CD65"/>
<stop offset="0.456087" stop-color="#EBD36A"/>
<stop offset="0.541865" stop-color="#EFD86E"/>
<stop offset="0.5659" stop-color="#EDD56C"/>
<stop offset="0.592895" stop-color="#EAD36A"/>
<stop offset="0.707011" stop-color="#DCC25C"/>
<stop offset="0.780492" stop-color="#CEB14F"/>
<stop offset="0.833303" stop-color="#C4A546"/>
<stop offset="1" stop-color="#A48028"/>
</linearGradient>
<linearGradient id="paint10_linear_333_154" x1="60.6001" y1="71.6995" x2="67.3244" y2="72.9753" gradientUnits="userSpaceOnUse">
<stop stop-color="#A4802A"/>
<stop offset="0.168539" stop-color="#D5BA57"/>
<stop offset="0.219924" stop-color="#D9BF5A"/>
<stop offset="0.31072" stop-color="#DEC45E"/>
<stop offset="0.341962" stop-color="#E1C761"/>
<stop offset="0.41072" stop-color="#E5CD65"/>
<stop offset="0.456087" stop-color="#EBD36A"/>
<stop offset="0.541865" stop-color="#EFD86E"/>
<stop offset="0.5659" stop-color="#EDD56C"/>
<stop offset="0.592895" stop-color="#EAD36A"/>
<stop offset="0.707011" stop-color="#DCC25C"/>
<stop offset="0.780492" stop-color="#CEB14F"/>
<stop offset="0.833303" stop-color="#C4A546"/>
<stop offset="1" stop-color="#A48028"/>
</linearGradient>
<linearGradient id="paint11_linear_333_154" x1="68.6021" y1="71.6997" x2="75.3406" y2="72.98" gradientUnits="userSpaceOnUse">
<stop stop-color="#A4802A"/>
<stop offset="0.168539" stop-color="#D5BA57"/>
<stop offset="0.219924" stop-color="#D9BF5A"/>
<stop offset="0.31072" stop-color="#DEC45E"/>
<stop offset="0.341962" stop-color="#E1C761"/>
<stop offset="0.41072" stop-color="#E5CD65"/>
<stop offset="0.456087" stop-color="#EBD36A"/>
<stop offset="0.541865" stop-color="#EFD86E"/>
<stop offset="0.5659" stop-color="#EDD56C"/>
<stop offset="0.592895" stop-color="#EAD36A"/>
<stop offset="0.707011" stop-color="#DCC25C"/>
<stop offset="0.780492" stop-color="#CEB14F"/>
<stop offset="0.833303" stop-color="#C4A546"/>
<stop offset="1" stop-color="#A48028"/>
</linearGradient>
<linearGradient id="paint12_linear_333_154" x1="36.0474" y1="15.6662" x2="57.9901" y2="18.0773" gradientUnits="userSpaceOnUse">
<stop stop-color="#A4802A"/>
<stop offset="0.168539" stop-color="#D5BA57"/>
<stop offset="0.219924" stop-color="#D9BF5A"/>
<stop offset="0.31072" stop-color="#DEC45E"/>
<stop offset="0.341962" stop-color="#E1C761"/>
<stop offset="0.41072" stop-color="#E5CD65"/>
<stop offset="0.456087" stop-color="#EBD36A"/>
<stop offset="0.541865" stop-color="#EFD86E"/>
<stop offset="0.5659" stop-color="#EDD56C"/>
<stop offset="0.592895" stop-color="#EAD36A"/>
<stop offset="0.707011" stop-color="#DCC25C"/>
<stop offset="0.780492" stop-color="#CEB14F"/>
<stop offset="0.833303" stop-color="#C4A546"/>
<stop offset="1" stop-color="#A48028"/>
</linearGradient>
<linearGradient id="paint13_linear_333_154" x1="17.1694" y1="31.3302" x2="38.3239" y2="35.9975" gradientUnits="userSpaceOnUse">
<stop stop-color="#A4802A"/>
<stop offset="0.168539" stop-color="#D5BA57"/>
<stop offset="0.219924" stop-color="#D9BF5A"/>
<stop offset="0.31072" stop-color="#DEC45E"/>
<stop offset="0.341962" stop-color="#E1C761"/>
<stop offset="0.41072" stop-color="#E5CD65"/>
<stop offset="0.456087" stop-color="#EBD36A"/>
<stop offset="0.541865" stop-color="#EFD86E"/>
<stop offset="0.5659" stop-color="#EDD56C"/>
<stop offset="0.592895" stop-color="#EAD36A"/>
<stop offset="0.707011" stop-color="#DCC25C"/>
<stop offset="0.780492" stop-color="#CEB14F"/>
<stop offset="0.833303" stop-color="#C4A546"/>
<stop offset="1" stop-color="#A48028"/>
</linearGradient>
<linearGradient id="paint14_linear_333_154" x1="17.4111" y1="15.6639" x2="39.0346" y2="18.0097" gradientUnits="userSpaceOnUse">
<stop stop-color="#A4802A"/>
<stop offset="0.168539" stop-color="#D5BA57"/>
<stop offset="0.219924" stop-color="#D9BF5A"/>
<stop offset="0.31072" stop-color="#DEC45E"/>
<stop offset="0.341962" stop-color="#E1C761"/>
<stop offset="0.41072" stop-color="#E5CD65"/>
<stop offset="0.456087" stop-color="#EBD36A"/>
<stop offset="0.541865" stop-color="#EFD86E"/>
<stop offset="0.5659" stop-color="#EDD56C"/>
<stop offset="0.592895" stop-color="#EAD36A"/>
<stop offset="0.707011" stop-color="#DCC25C"/>
<stop offset="0.780492" stop-color="#CEB14F"/>
<stop offset="0.833303" stop-color="#C4A546"/>
<stop offset="1" stop-color="#A48028"/>
</linearGradient>
<linearGradient id="paint15_linear_333_154" x1="32.2695" y1="7.0895" x2="39.3827" y2="8.94376" gradientUnits="userSpaceOnUse">
<stop stop-color="#A4802A"/>
<stop offset="0.168539" stop-color="#D5BA57"/>
<stop offset="0.219924" stop-color="#D9BF5A"/>
<stop offset="0.31072" stop-color="#DEC45E"/>
<stop offset="0.341962" stop-color="#E1C761"/>
<stop offset="0.41072" stop-color="#E5CD65"/>
<stop offset="0.456087" stop-color="#EBD36A"/>
<stop offset="0.541865" stop-color="#EFD86E"/>
<stop offset="0.5659" stop-color="#EDD56C"/>
<stop offset="0.592895" stop-color="#EAD36A"/>
<stop offset="0.707011" stop-color="#DCC25C"/>
<stop offset="0.780492" stop-color="#CEB14F"/>
<stop offset="0.833303" stop-color="#C4A546"/>
<stop offset="1" stop-color="#A48028"/>
</linearGradient>
<linearGradient id="paint16_linear_333_154" x1="9.78613" y1="1.70694" x2="71.7637" y2="14.2816" gradientUnits="userSpaceOnUse">
<stop stop-color="#A4802A"/>
<stop offset="0.168539" stop-color="#D5BA57"/>
<stop offset="0.219924" stop-color="#D9BF5A"/>
<stop offset="0.31072" stop-color="#DEC45E"/>
<stop offset="0.341962" stop-color="#E1C761"/>
<stop offset="0.41072" stop-color="#E5CD65"/>
<stop offset="0.456087" stop-color="#EBD36A"/>
<stop offset="0.541865" stop-color="#EFD86E"/>
<stop offset="0.5659" stop-color="#EDD56C"/>
<stop offset="0.592895" stop-color="#EAD36A"/>
<stop offset="0.707011" stop-color="#DCC25C"/>
<stop offset="0.780492" stop-color="#CEB14F"/>
<stop offset="0.833303" stop-color="#C4A546"/>
<stop offset="1" stop-color="#A48028"/>
</linearGradient>
<linearGradient id="paint17_linear_333_154" x1="36.0962" y1="22.7046" x2="56.6091" y2="25.742" gradientUnits="userSpaceOnUse">
<stop stop-color="#A4802A"/>
<stop offset="0.168539" stop-color="#D5BA57"/>
<stop offset="0.219924" stop-color="#D9BF5A"/>
<stop offset="0.31072" stop-color="#DEC45E"/>
<stop offset="0.341962" stop-color="#E1C761"/>
<stop offset="0.41072" stop-color="#E5CD65"/>
<stop offset="0.456087" stop-color="#EBD36A"/>
<stop offset="0.541865" stop-color="#EFD86E"/>
<stop offset="0.5659" stop-color="#EDD56C"/>
<stop offset="0.592895" stop-color="#EAD36A"/>
<stop offset="0.707011" stop-color="#DCC25C"/>
<stop offset="0.780492" stop-color="#CEB14F"/>
<stop offset="0.833303" stop-color="#C4A546"/>
<stop offset="1" stop-color="#A48028"/>
</linearGradient>
<linearGradient id="paint18_linear_333_154" x1="12.9165" y1="5.04415" x2="67.1271" y2="15.7887" gradientUnits="userSpaceOnUse">
<stop stop-color="#A4802A"/>
<stop offset="0.168539" stop-color="#D5BA57"/>
<stop offset="0.219924" stop-color="#D9BF5A"/>
<stop offset="0.31072" stop-color="#DEC45E"/>
<stop offset="0.341962" stop-color="#E1C761"/>
<stop offset="0.41072" stop-color="#E5CD65"/>
<stop offset="0.456087" stop-color="#EBD36A"/>
<stop offset="0.541865" stop-color="#EFD86E"/>
<stop offset="0.5659" stop-color="#EDD56C"/>
<stop offset="0.592895" stop-color="#EAD36A"/>
<stop offset="0.707011" stop-color="#DCC25C"/>
<stop offset="0.780492" stop-color="#CEB14F"/>
<stop offset="0.833303" stop-color="#C4A546"/>
<stop offset="1" stop-color="#A48028"/>
</linearGradient>
</defs>
</svg>
